<?xml version="1.0" standalone="no"?>
<!DOCTYPE svg PUBLIC "-//W3C//DTD SVG 20010904//EN"
 "http://www.w3.org/TR/2001/REC-SVG-20010904/DTD/svg10.dtd">
<svg version="1.0" xmlns="http://www.w3.org/2000/svg"
 width="600.000000pt" height="600.000000pt" viewBox="0 0 600.000000 600.000000"
 preserveAspectRatio="xMidYMid meet">
<metadata>
Created by potrace 1.11, written by Peter Selinger 2001-2013
</metadata>
<g transform="translate(0.000000,600.000000) scale(0.100000,-0.100000)"
fill="#000000" stroke="none">
<path d="M2930 5471 c-61 -36 -472 -273 -1270 -734 -190 -109 -370 -213 -400
-231 -30 -18 -129 -75 -219 -127 -111 -64 -166 -101 -172 -117 -5 -13 -9 -555
-9 -1237 l0 -1214 33 -24 c17 -13 95 -60 172 -104 77 -44 217 -124 310 -178
179 -104 450 -260 675 -390 74 -43 178 -103 230 -133 52 -31 136 -79 185 -107
50 -29 135 -78 190 -110 260 -151 338 -195 346 -195 5 0 85 43 177 97 212 122
278 161 322 185 19 11 161 93 315 183 154 89 325 188 380 220 107 62 126 73
223 129 34 20 90 52 125 72 34 20 76 44 92 54 217 124 373 215 433 251 l72 43
0 1237 0 1236 -127 73 c-71 41 -281 162 -468 270 -187 108 -605 350 -930 538
-324 187 -597 343 -605 346 -8 4 -44 -11 -80 -33z m70 -1753 c0 -2 -11 -58
-24 -125 -13 -68 -21 -125 -18 -128 3 -3 69 -5 147 -5 161 0 226 -14 267 -57
62 -67 62 -97 2 -405 l-46 -238 -104 0 c-78 0 -104 3 -104 13 0 7 18 105 40
217 46 238 48 269 19 296 -18 16 -40 20 -140 22 -65 2 -119 1 -119 -3 0 -3
-15 -83 -34 -178 -18 -95 -42 -216 -52 -269 l-18 -98 -103 0 c-90 0 -103 2
-103 17 0 14 66 358 156 811 13 68 24 126 24 128 0 2 47 4 105 4 58 0 105 -1
105 -2z m-534 -273 c69 -20 128 -67 156 -123 19 -39 23 -62 22 -137 -1 -145
-58 -261 -167 -341 -85 -63 -135 -76 -321 -83 l-160 -6 -25 -125 -26 -125
-102 -3 c-79 -2 -103 0 -103 10 0 11 135 719 171 896 l10 52 248 0 c188 0 259
-4 297 -15z m1633 -1 c61 -18 123 -69 154 -128 31 -57 30 -196 -2 -278 -30
-76 -98 -165 -159 -206 -78 -53 -129 -64 -307 -69 l-160 -5 -25 -127 -25 -126
-103 -3 c-96 -3 -102 -2 -102 17 0 11 15 98 34 193 19 95 55 281 80 413 26
132 51 261 57 288 l11 47 247 0 c195 0 259 -3 300 -16z"/>
<path d="M2080 3188 c-12 -68 -28 -150 -36 -183 -24 -104 -30 -99 94 -93 128
7 179 25 226 80 35 40 66 129 66 186 0 101 -52 132 -219 132 l-109 0 -22 -122z"/>
<path d="M3696 3123 c-20 -104 -36 -194 -36 -202 0 -20 200 -10 255 13 87 37
137 122 139 237 2 112 -40 139 -213 139 l-109 0 -36 -187z"/>
</g>
</svg>
